# xmcd
#
# Track frame offsets:
#	150
#	15802
#	33902
#	51500
#	66757
#	83357
#	98230
#	116645
#	130577
#	145580
#	162245
#	179062
#
# Disc length: 2596 seconds
#
# Revision: 2
# Processed by: cddbd v1.5.1PL0 Copyright (c) Steve Scherf et al.
# Submitted via: audiograbber 1.83.01
#
DISCID=920a220c
DTITLE=John Berry - Greatest Hits
DYEAR=2000
DGENRE=Country
TTITLE0=Kiss Me In The Car
TTITLE1=You And Only You
TTITLE2=Your Love Amazes Me
TTITLE3=A Mind Of Her Own
TTITLE4=She's Taken A Shine
TTITLE5=Change My Mind
TTITLE6=Standing On The Edge Of Goodbye
TTITLE7=I Will, If You Will
TTITLE8=What's In It For Me
TTITLE9=I Think About It All The Time
TTITLE10=If I Had Any Pride Left At All
TTITLE11=We Can't Unmake Love (Duet With Wynonna)
EXTD=ID3G:   2
EXTT0=
EXTT1=
EXTT2=
EXTT3=
EXTT4=
EXTT5=
EXTT6=
EXTT7=
EXTT8=
EXTT9=
EXTT10=
EXTT11=
PLAYORDER=
